<svg width="511" height="509" viewBox="0 0 511 509" fill="none" xmlns="http://www.w3.org/2000/svg">
<path d="M255.468 0.00266829C188.123 -0.305618 123.405 26.1111 75.5124 73.4576C27.6199 120.804 0.463838 185.214 0 252.558C0 320.312 26.9148 385.291 74.8243 433.201C122.734 481.11 187.713 508.025 255.468 508.025C323.222 508.025 388.2 481.11 436.11 433.201C484.019 385.291 510.935 320.312 510.935 252.558C510.471 185.214 483.314 120.804 435.422 73.4576C387.529 26.1111 322.812 -0.305618 255.468 0.00266829ZM255.468 385.946C229.148 385.647 203.505 377.569 181.767 362.729C160.029 347.889 143.166 326.95 133.301 302.547C123.437 278.145 121.011 251.37 126.329 225.592C131.648 199.814 144.474 176.185 163.192 157.68C181.91 139.175 205.683 126.621 231.52 121.597C257.357 116.573 284.102 119.304 308.391 129.447C332.679 139.59 353.423 156.691 368.014 178.597C382.605 200.504 390.39 226.237 390.388 252.558C390.288 270.175 386.718 287.601 379.883 303.839C373.048 320.077 363.082 334.809 350.554 347.196C338.025 359.582 323.18 369.379 306.865 376.028C290.55 382.677 273.085 386.047 255.468 385.946Z" fill="url(#paint0_linear_11536_184)"/>
<path fill-rule="evenodd" clip-rule="evenodd" d="M109.224 302.137C109.434 302.342 109.683 302.503 109.956 302.61C110.229 302.717 110.52 302.769 110.814 302.763C111.107 302.757 111.396 302.692 111.664 302.573C111.932 302.453 112.173 302.282 112.374 302.069C113.654 300.718 114.513 299.024 114.846 297.193C115.178 295.362 114.97 293.474 114.247 291.76C113.523 290.045 112.316 288.579 110.772 287.54C109.229 286.501 107.416 285.934 105.555 285.909C103.694 285.934 101.881 286.501 100.338 287.54C98.7939 288.579 97.5865 290.045 96.863 291.76C96.1395 293.474 95.9313 295.362 96.2639 297.193C96.5964 299.024 97.4553 300.718 98.7354 302.069C98.9365 302.282 99.178 302.453 99.446 302.573C99.7139 302.692 100.003 302.757 100.296 302.763C100.589 302.769 100.881 302.717 101.154 302.61C101.427 302.503 101.675 302.342 101.886 302.137C102.312 301.721 102.558 301.155 102.571 300.559C102.584 299.963 102.362 299.386 101.953 298.953C101.045 297.991 100.548 296.713 100.566 295.391C100.585 294.068 101.118 292.805 102.052 291.868C102.511 291.408 103.057 291.042 103.659 290.793C104.26 290.543 104.904 290.415 105.555 290.415C106.206 290.415 106.85 290.543 107.451 290.793C108.052 291.042 108.598 291.408 109.058 291.868C109.992 292.805 110.525 294.068 110.543 295.391C110.562 296.713 110.064 297.991 109.157 298.953C108.748 299.386 108.526 299.963 108.539 300.559C108.552 301.155 108.798 301.722 109.225 302.137L109.224 302.137ZM114.998 336.792C115.01 333.942 113.892 331.205 111.888 329.178C109.885 327.152 107.16 326.003 104.31 325.983C102.905 325.981 101.513 326.26 100.217 326.803C98.9204 327.346 97.7455 328.143 96.7611 329.146C96.3436 329.571 96.1097 330.142 96.1097 330.738C96.1097 331.334 96.3436 331.905 96.7611 332.33C96.9668 332.539 97.2121 332.705 97.4826 332.819C97.7531 332.932 98.0435 332.99 98.3368 332.99C98.6301 332.99 98.9205 332.932 99.191 332.819C99.4615 332.705 99.7068 332.539 99.9125 332.33C100.487 331.746 101.173 331.281 101.929 330.965C102.685 330.648 103.497 330.484 104.317 330.484C105.137 330.484 105.949 330.648 106.705 330.965C107.461 331.281 108.147 331.746 108.722 332.33C109.891 333.518 110.546 335.119 110.546 336.785C110.546 338.452 109.891 340.052 108.722 341.241C108.147 341.825 107.461 342.29 106.705 342.606C105.949 342.923 105.137 343.087 104.317 343.087C103.497 343.087 102.685 342.923 101.929 342.606C101.173 342.29 100.487 341.825 99.9125 341.241C99.7068 341.032 99.4616 340.866 99.1912 340.752C98.9207 340.639 98.6304 340.581 98.3371 340.581C98.0439 340.581 97.7535 340.639 97.4831 340.752C97.2126 340.866 96.9674 341.032 96.7617 341.241C96.3442 341.666 96.1103 342.237 96.1103 342.833C96.1103 343.429 96.3442 344 96.7617 344.425C97.7449 345.431 98.9191 346.23 100.215 346.775C101.512 347.321 102.904 347.602 104.31 347.602C107.16 347.581 109.885 346.432 111.889 344.406C113.892 342.38 115.011 339.641 114.998 336.792ZM114.998 314.156C115.01 311.637 114.022 309.217 112.251 307.426C110.481 305.635 108.072 304.619 105.554 304.602C103.02 304.602 100.59 305.609 98.7982 307.4C97.0065 309.192 95.9999 311.622 95.9999 314.156C95.9999 316.69 97.0065 319.12 98.7982 320.911C100.59 322.703 103.02 323.71 105.554 323.71C108.072 323.692 110.481 322.677 112.251 320.886C114.022 319.095 115.01 316.674 114.998 314.156ZM100.565 314.156C100.577 313.172 100.879 312.213 101.434 311.4C101.989 310.587 102.772 309.956 103.684 309.587C104.597 309.218 105.598 309.128 106.562 309.326C107.526 309.525 108.41 310.005 109.102 310.705C109.794 311.405 110.263 312.294 110.451 313.26C110.639 314.226 110.537 315.227 110.158 316.135C109.778 317.043 109.139 317.819 108.32 318.365C107.5 318.91 106.538 319.202 105.554 319.201C104.895 319.198 104.243 319.064 103.636 318.809C103.029 318.553 102.478 318.18 102.015 317.712C101.551 317.243 101.185 316.688 100.936 316.078C100.688 315.468 100.562 314.815 100.565 314.156ZM111.888 265.117C113.891 267.143 115.01 269.881 114.998 272.731C115.01 275.58 113.891 278.318 111.888 280.345C109.884 282.371 107.159 283.52 104.31 283.54C102.903 283.54 101.511 283.259 100.215 282.714C98.9187 282.168 97.7446 281.369 96.7614 280.364C96.344 279.939 96.1101 279.367 96.1101 278.771C96.1101 278.176 96.344 277.604 96.7614 277.179C96.9672 276.97 97.2124 276.804 97.483 276.691C97.7535 276.577 98.0439 276.519 98.3372 276.519C98.6305 276.519 98.9208 276.577 99.1914 276.691C99.4619 276.804 99.7072 276.97 99.9129 277.179C100.488 277.764 101.173 278.228 101.93 278.545C102.686 278.862 103.498 279.025 104.318 279.025C105.138 279.025 105.95 278.862 106.706 278.545C107.462 278.228 108.148 277.764 108.723 277.179C109.892 275.991 110.547 274.391 110.547 272.724C110.547 271.057 109.892 269.456 108.723 268.268C108.148 267.683 107.462 267.219 106.706 266.902C105.95 266.585 105.138 266.422 104.318 266.422C103.498 266.422 102.686 266.585 101.93 266.902C101.173 267.219 100.488 267.683 99.9129 268.268C99.7072 268.477 99.4619 268.643 99.1914 268.757C98.9208 268.87 98.6305 268.928 98.3372 268.928C98.0439 268.928 97.7535 268.87 97.483 268.757C97.2124 268.643 96.9672 268.477 96.7614 268.268C96.344 267.843 96.1101 267.271 96.1101 266.676C96.1101 266.08 96.344 265.508 96.7614 265.084C97.7458 264.081 98.9205 263.284 100.217 262.741C101.513 262.199 102.904 261.92 104.31 261.922C107.159 261.942 109.884 263.091 111.888 265.117ZM105.566 297.713C104.337 297.72 103.334 296.717 103.327 295.474C103.321 294.23 104.312 293.216 105.542 293.209C106.771 293.202 107.774 294.205 107.781 295.449C107.788 296.693 106.796 297.707 105.566 297.713Z" fill="#C4F3F7"/>
<defs>
<linearGradient id="paint0_linear_11536_184" x1="270.5" y1="362" x2="-261.485" y2="116.825" gradientUnits="userSpaceOnUse">
<stop stop-color="#00A5F0"/>
<stop offset="1" stop-color="#00D7D7" stop-opacity="0"/>
</linearGradient>
</defs>
</svg>
