<svg width="25" height="25" viewBox="0 0 25 25" fill="none" xmlns="http://www.w3.org/2000/svg">
<mask id="mask0_11543_189" style="mask-type:alpha" maskUnits="userSpaceOnUse" x="0" y="0" width="25" height="25">
<rect x="0.964844" y="0.737549" width="24" height="24" fill="#D9D9D9"/>
</mask>
<g mask="url(#mask0_11543_189)">
<path d="M4.96484 18.7375C4.68151 18.7375 4.44418 18.6415 4.25284 18.4495C4.06084 18.2582 3.96484 18.0209 3.96484 17.7375C3.96484 17.4542 4.06084 17.2169 4.25284 17.0255C4.44418 16.8335 4.68151 16.7375 4.96484 16.7375H20.9648C21.2482 16.7375 21.4855 16.8335 21.6768 17.0255C21.8688 17.2169 21.9648 17.4542 21.9648 17.7375C21.9648 18.0209 21.8688 18.2582 21.6768 18.4495C21.4855 18.6415 21.2482 18.7375 20.9648 18.7375H4.96484ZM4.96484 13.7375C4.68151 13.7375 4.44418 13.6415 4.25284 13.4495C4.06084 13.2582 3.96484 13.0209 3.96484 12.7375C3.96484 12.4542 4.06084 12.2165 4.25284 12.0245C4.44418 11.8332 4.68151 11.7375 4.96484 11.7375H20.9648C21.2482 11.7375 21.4855 11.8332 21.6768 12.0245C21.8688 12.2165 21.9648 12.4542 21.9648 12.7375C21.9648 13.0209 21.8688 13.2582 21.6768 13.4495C21.4855 13.6415 21.2482 13.7375 20.9648 13.7375H4.96484ZM4.96484 8.73755C4.68151 8.73755 4.44418 8.64188 4.25284 8.45055C4.06084 8.25855 3.96484 8.02088 3.96484 7.73755C3.96484 7.45422 4.06084 7.21655 4.25284 7.02455C4.44418 6.83322 4.68151 6.73755 4.96484 6.73755H20.9648C21.2482 6.73755 21.4855 6.83322 21.6768 7.02455C21.8688 7.21655 21.9648 7.45422 21.9648 7.73755C21.9648 8.02088 21.8688 8.25855 21.6768 8.45055C21.4855 8.64188 21.2482 8.73755 20.9648 8.73755H4.96484Z" fill="white"/>
</g>
</svg>
